<svg width="100" height="80" viewBox="0 0 1024 816" xmlns="http://www.w3.org/2000/svg" xml:space="preserve" version="1.1">

 <g>
  <title>Layer 1</title>
  <path id="svg_1" d="m808.61401,369.31824c19.35175,9.44348 26.94666,25.33346 26.59833,45.7435c-0.12482,7.31238 0.32044,14.60666 -0.62372,21.94479c-1.82422,14.1785 -9.25378,24.38397 -21.19159,31.56094c-15.41992,9.27045 -30.95739,18.34543 -46.43951,27.51267c-1.84271,1.09113 -3.89154,1.91269 -5.24042,3.82901c0.30902,2.41772 2.48352,2.90988 4.11658,3.86346c14.96265,8.73679 29.83417,17.63834 44.95929,26.08542c17.03851,9.51575 24.61121,24.14624 24.46124,43.22186c-0.07831,9.96259 0.66272,19.94959 -1.76147,29.81995c-2.87629,11.71063 -9.73078,20.258 -19.87793,26.37329c-54.22058,32.67609 -108.456,65.32758 -162.68042,97.99738c-30.96601,18.65661 -61.66522,37.77344 -92.95313,55.87323c-30.47729,17.63074 -61.60809,16.82354 -91.64773,-1.12616c-71.37055,-42.64655 -142.4419,-85.7937 -213.64835,-128.71515c-12.55588,-7.5683 -25.04227,-15.26801 -37.81059,-22.46368c-14.01216,-7.89667 -22.0808,-19.69965 -23.66258,-35.4842c-1.16066,-11.58215 -1.4132,-23.32623 0.73878,-34.86871c2.35439,-12.62793 9.11389,-22.34808 20.34349,-28.86194c14.84198,-8.60925 29.63825,-17.29724 44.45297,-25.95346c0.86313,-0.50439 1.72113,-1.01807 2.5719,-1.543c5.52197,-3.40729 5.59491,-4.41043 0.18915,-7.63339c-11.01884,-6.56949 -22.12202,-12.99753 -33.14091,-19.56699c-5.86635,-3.49743 -11.77449,-6.95593 -17.40779,-10.80652c-11.05916,-7.55932 -16.65224,-18.55923 -17.82383,-31.57589c-0.98408,-10.9335 -1.12524,-21.97235 0.7307,-32.89066c2.66168,-15.65838 12.58873,-25.47345 25.96313,-32.81857c15.18479,-8.33939 30.11637,-17.1398 45.15969,-25.73688c0.85818,-0.49042 1.83923,-0.84006 2.18014,-2.36737c-1.83065,-2.63693 -5.02456,-3.8165 -7.79333,-5.46423c-14.4605,-8.60611 -28.86417,-17.31787 -43.50919,-25.60114c-16.03029,-9.06671 -22.79899,-23.1391 -23.08551,-40.90014c-0.14754,-9.14524 -0.24569,-18.25638 1.74834,-27.3474c2.77704,-12.66092 9.43117,-22.19832 20.61653,-28.65895c44.43448,-25.66518 88.88718,-51.29903 133.28659,-77.02469c41.94409,-24.30302 83.68659,-48.95793 125.79349,-72.97454c26.50619,-15.11841 54.09335,-15.5791 80.53866,-0.53529c58.93695,33.52719 117.35541,67.96552 176.00238,102.00293c26.94355,15.63744 53.6496,31.71535 80.99744,46.61316c16.41852,8.94403 24.18158,22.29706 25.24079,40.15234c0.56079,9.45401 0.76879,18.98087 -0.74683,28.42374c-1.93756,12.0723 -8.00232,21.4404 -18.49896,27.72376c-15.43567,9.23977 -30.97699,18.30295 -46.46143,27.46145c-3.11578,1.84293 -6.17865,3.77549 -10.15985,6.2143c16.94739,9.75937 33.05548,19.03537 49.47546,28.50177m-333.96926,29.48846c2.01413,1.17545 4.01763,2.36948 6.04394,3.5235c21.4697,12.22772 43.14127,12.42212 64.6268,0.38028c17.14148,-9.60715 33.95099,-19.806 50.92267,-29.71671c43.43677,-25.36511 86.89197,-50.6987 130.3197,-76.07925c25.02197,-14.62369 50.03796,-29.25824 74.98651,-44.00662c8.24109,-4.87175 8.31702,-10.48844 0.48371,-16.13516c-1.88758,-1.36068 -3.88459,-2.5826 -5.89808,-3.75341c-13.10156,-7.61824 -26.21716,-15.21232 -39.33618,-22.8005c-71.94354,-41.6129 -143.86108,-83.27084 -215.85473,-124.79695c-17.45954,-10.07072 -35.67194,-10.86329 -53.41577,-1.26914c-21.67237,11.71832 -42.90485,24.25744 -64.22373,36.62067c-35.15304,20.38591 -70.21139,40.93507 -105.33105,61.37863c-30.79905,17.92845 -61.68122,35.71486 -92.41138,53.76039c-9.71608,5.70554 -9.59422,11.71489 -0.02077,17.31074c41.1234,24.0373 82.29497,47.99207 123.41658,72.03241c41.69748,24.37702 83.35678,48.81934 125.69178,73.55112m-160.51349,226.49689c11.29324,6.75976 22.57342,13.54144 33.88208,20.27533c42.94476,25.57196 85.90585,51.11639 128.84149,76.70367c6.46451,3.85248 13.06543,7.46173 20.37527,9.331c17.50763,4.47699 34.02869,1.67999 49.48114,-7.51136c38.37665,-22.82721 76.71662,-45.71606 115.07764,-68.56951c45.66193,-27.20307 91.33221,-54.39228 136.99512,-81.59369c12.99285,-7.73993 13.07855,-13.01441 0.1795,-20.70148c-19.60809,-11.6853 -39.3587,-23.13373 -58.87415,-34.97058c-4.20507,-2.55054 -7.23504,-2.12366 -11.25598,0.31225c-52.00604,31.50568 -104.09521,62.87427 -156.21392,94.1933c-9.97571,5.99463 -19.59827,12.70264 -30.83265,16.34894c-27.5913,8.95532 -53.47076,4.97485 -78.05941,-9.97449c-27.33304,-16.61798 -54.79923,-33.01703 -82.20252,-49.51953c-28.11795,-16.9328 -56.22842,-33.87805 -84.34698,-50.80987c-3.00129,-1.80726 -5.66483,-3.51807 -9.5842,-1.15937c-20.83856,12.54053 -41.90595,24.70032 -62.77309,37.1941c-9.08754,5.44097 -8.87736,12.03735 0.19194,17.43377c29.49524,17.55011 58.991,35.09931 89.11872,53.01752m61.97787,-123.95892c1.73825,0.98751 3.49185,1.949 5.2124,2.96646c32.69767,19.33597 65.33567,38.77371 98.10599,57.98568c21.17954,12.41669 42.88431,13.1814 64.72751,1.67932c6.18469,-3.25671 12.10297,-7.02105 18.12866,-10.57739c56.10474,-33.1123 112.20618,-66.22986 168.30847,-99.34616c23.81916,-14.06 47.68225,-28.04611 71.43195,-42.22238c8.04181,-4.80023 8.08459,-11.3392 0.05194,-16.11606c-21.1933,-12.60327 -42.54504,-24.93991 -63.79889,-37.44186c-3.19073,-1.87686 -5.90289,-1.85083 -9.19965,0.13723c-16.8352,10.15226 -33.86059,19.98856 -50.73193,30.08176c-39.74249,23.77567 -79.2583,47.93616 -119.20599,71.36075c-30.19818,17.70761 -61.07566,18.02951 -91.52579,0.30252c-26.492,-15.42276 -52.72821,-31.28577 -79.04089,-47.01538c-30.31577,-18.12259 -60.6088,-36.28332 -90.85959,-54.51392c-3.32123,-2.00155 -6.04679,-2.34021 -9.60114,-0.20263c-12.41824,7.46814 -25.07199,14.54345 -37.5917,21.84445c-9.20891,5.37018 -18.47096,10.66571 -27.47649,16.36258c-6.30614,3.98923 -6.31074,9.68497 -0.34038,14.11627c2.5318,1.87915 5.33532,3.40176 8.06174,5.00769c48.23486,28.41141 96.47693,56.81064 145.34378,85.59107m39.53626,203.58142c-65.56968,-39.14026 -131.13935,-78.28046 -196.33249,-117.19599c-1.80359,1.15534 -1.92363,2.14154 -1.93273,3.16175c-0.06036,6.77355 2.11255,12.38348 8.19182,16.05334c17.39713,10.50214 34.75995,21.0611 52.16171,31.55548c46.64621,28.13068 93.28827,56.26825 139.96744,84.34412c21.98026,13.22021 43.83951,26.6618 66.14331,39.31616c13.15244,7.46222 27.61603,9.0213 42.58933,5.91223c12.41443,-2.5777 22.60077,-9.52692 33.14349,-15.87915c64.49341,-38.85889 129.00055,-77.69507 193.5,-116.54395c15.55402,-9.36828 31.13055,-18.6997 46.62988,-28.15777c7.94043,-4.8454 10.90851,-12.43213 8.08441,-20.37421c-2.77832,1.56983 -5.5531,3.05463 -8.24786,4.67267c-46.26874,27.78113 -92.52087,55.58972 -138.79071,83.36896c-34.55817,20.74786 -69.03381,41.63586 -103.73755,62.13751c-28.12823,16.61719 -56.79794,17.36243 -85.32767,0.94251c-18.6232,-10.71821 -36.95416,-21.9441 -56.04238,-33.31366m6.89163,-156.89643c-6.71524,-4.02234 -13.41092,-8.07776 -20.14881,-12.06176c-49.32666,-29.16578 -98.6672,-58.30805 -147.98993,-87.48047c-10.46739,-6.19104 -20.86471,-12.50055 -31.33491,-18.6868c-1.36139,-0.80438 -2.88292,-2.11539 -4.59683,-0.98407c-1.66023,1.09592 -1.21492,3.01294 -1.11609,4.60968c0.34772,5.61786 3.34428,9.72186 7.98462,12.5516c13.36683,8.15134 26.79321,16.20572 40.23228,24.23783c33.60315,20.08349 67.24448,40.10324 100.83658,60.20523c38.02582,22.75506 75.83835,45.87329 114.08789,68.24512c21.75104,12.72198 44.31671,12.26483 66.08032,-0.31244c22.78315,-13.16657 45.1344,-27.07947 67.70587,-40.61359c45.86207,-27.49945 91.74097,-54.97067 137.62207,-82.43835c16.00947,-9.58438 32.09913,-19.03617 48.0478,-28.72037c8.16192,-4.95603 10.56097,-11.09778 7.98815,-19.34265c-1.19634,0.60638 -2.39697,1.13431 -3.51879,1.79589c-13.63178,8.03953 -27.26246,16.08097 -40.87329,24.15586c-69.63032,41.30957 -139.13074,82.84021 -208.94403,123.83813c-26.85993,15.7735 -54.56846,15.64978 -81.80689,0.35291c-16.70102,-9.37927 -33.08841,-19.3169 -50.25601,-29.35175m156.0657,-145.85827c-9.37256,5.41781 -18.5058,11.31219 -28.16412,16.16082c-25.23139,12.66657 -51.08878,13.17398 -75.67383,-0.66192c-41.50824,-23.35996 -82.31628,-47.96332 -123.43967,-72.008c-42.85183,-25.05523 -85.72577,-50.07269 -128.60565,-75.07989c-1.48135,-0.86392 -2.88933,-2.41394 -5.26008,-1.13489c-0.71564,7.08667 1.15975,12.95898 7.77192,16.827c8.48146,4.96148 16.90714,10.01824 25.36617,15.01818c34.12437,20.17029 68.29829,40.25721 102.36714,60.52082c41.51602,24.69305 82.99399,49.45095 124.39142,74.34213c22.2926,13.40399 45.13202,15.15283 67.72259,2.00467c40.73694,-23.7096 80.98474,-48.25861 121.49079,-72.36633c35.20904,-20.9552 70.49914,-41.77411 105.73913,-62.67746c10.02722,-5.94785 20.13935,-11.76932 29.95478,-18.05146c6.07916,-3.89087 8.2586,-10.90084 5.89306,-17.27481c-76.3695,44.69635 -152.65411,89.34296 -229.55365,134.38114m-146.52307,-21.7071c-71.68985,-41.884 -143.37967,-83.768 -215.52721,-125.9194c-0.56233,3.98575 1.7409,5.69803 3.76621,7.1456c3.91901,2.80103 8.04977,5.32654 12.21054,7.76532c36.79155,21.56479 73.60594,43.09067 110.41954,64.6178c44.8696,26.23785 89.54315,52.81997 134.69998,78.55386c23.83557,13.58338 48.6489,12.88864 72.44333,-0.54983c31.32867,-17.6937 62.2594,-36.09326 93.31976,-54.26035c39.4051,-23.04791 78.77228,-46.1607 118.14795,-69.25894c13.79633,-8.09314 27.59687,-16.17993 41.33399,-24.37274c3.49591,-2.08496 7.28589,-4.177 7.07666,-9.93621c-2.93268,1.83559 -5.36798,3.44762 -7.88416,4.92171c-43.98297,25.76734 -87.96008,51.54486 -131.97119,77.26404c-41.28033,24.12329 -82.36346,48.59808 -123.99676,72.09723c-21.8653,12.34149 -44.72098,11.77505 -66.77527,-0.5137c-15.71466,-8.75629 -31.10538,-18.094 -47.26337,-27.55439m222.23609,125.42923c-33.15009,19.55021 -66.49409,38.78086 -99.39081,58.74851c-27.98658,16.98724 -55.30848,17.49676 -83.177,-0.06641c-16.76743,-10.56707 -34.02158,-20.36493 -51.10383,-30.42889c-63.875,-37.63181 -127.76651,-75.23566 -191.66397,-112.82932c-3.52443,-2.07358 -7.15858,-3.96063 -10.75068,-5.93951c-1.69085,2.6731 -0.20275,3.92108 1.29738,4.98636c2.71537,1.92822 5.45559,3.84179 8.31541,5.543c33.21736,19.75976 66.42531,39.53567 99.70235,59.19461c48.62695,28.72711 97.3219,57.33911 145.96069,86.0462c26.29425,15.51917 52.64157,15.88202 79.05722,0.43823c15.96484,-9.33368 31.862,-18.78332 47.77631,-28.20318c47.16998,-27.92047 94.33508,-55.84928 141.49877,-83.78043c20.35749,-12.05603 40.71515,-24.11166 61.05188,-36.20261c3.56672,-2.12048 7.02417,-4.41943 7.20136,-9.841c-52.05048,30.84571 -103.60272,61.39612 -155.77508,92.33444m-193.89115,213.23874c-80.70868,-48.04229 -161.41733,-96.08453 -242.48479,-144.34039c-1.24363,4.54382 1.45723,5.53674 3.38785,6.89655c12.00646,8.4566 25.03517,15.24829 37.58186,22.81842c45.78205,27.62292 91.7602,54.92083 137.66883,82.33404c26.60327,15.88538 53.02133,32.09369 79.88385,47.52826c21.60373,12.41309 44.44498,13.30707 67.23703,3.39948c8.80487,-3.8274 16.90747,-9.31775 25.20056,-14.26728c53.07391,-31.67584 106.11701,-63.40326 159.15924,-95.13214c25.16406,-15.05267 50.29981,-30.15265 75.45929,-45.21313c3.50922,-2.10065 6.44598,-4.54804 6.81592,-9.64203c-1.18231,0.54809 -1.91669,0.81012 -2.57221,1.20361c-41.56115,24.94855 -83.09271,49.9466 -124.67773,74.85535c-43.8714,26.2782 -87.74487,52.55359 -131.71277,78.66968c-23.258,13.81469 -47.17544,15.10363 -71.36963,2.41235c-6.48291,-3.40063 -12.64349,-7.41583 -19.5773,-11.52277z" fill="#25c2a0"/>
  <path id="svg_2" d="m442.67264,181.65536c3.15072,-2.75317 5.9924,-5.32366 8.91766,-7.79521c7.582,-6.40587 16.70923,-6.25081 22.2413,0.32734c5.74994,6.83717 4.38477,15.95156 -3.13928,22.43345c-18.54098,15.97286 -37.00781,32.03179 -55.51303,48.04622c-1.12842,0.97652 -2.33151,1.86671 -3.09784,2.47698c0.08304,2.97074 1.88349,3.88302 3.19345,5.02564c18.56943,16.19716 37.20059,32.32357 55.77161,48.51894c9.41739,8.21268 8.21503,21.4064 -2.43479,25.78439c-6.57089,2.70118 -12.37658,0.56186 -17.50561,-3.89999c-16.08115,-13.98941 -32.1608,-27.98059 -48.23496,-41.97806c-6.90615,-6.01391 -13.7514,-12.09863 -20.70581,-18.05606c-11.07501,-9.48732 -11.42877,-18.44829 -0.54052,-27.98866c20.16211,-17.66623 40.50772,-35.12311 61.04782,-52.89498z" fill="#25c2a0"/>
  <path id="svg_3" d="m564.28497,301.31464c20.26862,-17.53287 40.27253,-34.82416 60.03022,-51.90259c-0.78834,-3.13674 -2.81397,-4.21633 -4.38965,-5.59253c-17.8125,-15.55736 -35.65949,-31.0753 -53.52405,-46.57297c-3.72711,-3.23332 -6.9643,-6.75351 -7.63049,-11.89429c-0.76398,-5.89506 2.01196,-11.57531 7.17376,-14.25578c6.08515,-3.15994 12.0141,-2.49545 17.28101,1.8019c5.41638,4.41929 10.56921,9.16082 15.85852,13.7368c18.89307,16.34491 37.83325,32.63565 56.67676,49.03749c8.62237,7.50514 8.56805,17.47636 0.00665,25.00122c-23.51453,20.66754 -47.03625,41.32693 -70.59955,61.93872c-8.95221,7.8309 -20.7016,6.18042 -25.2254,-3.41306c-2.83502,-6.01214 -1.48346,-11.86035 4.34222,-17.88491z" fill="#25c2a0"/>
  <path id="svg_4" d="m521.50446,191.58173c1.47973,-4.66095 2.67633,-9.00519 4.24047,-13.21277c3.28162,-8.82736 10.6521,-13.04044 18.24201,-10.64772c8.20428,2.58639 12.10241,9.84909 9.27795,19.15266c-6.23468,20.53716 -12.84405,40.96225 -19.45825,61.38202c-7.3836,22.79504 -14.92651,45.53854 -22.44766,68.28876c-0.7266,2.19784 -1.54709,4.43149 -2.73975,6.39612c-3.83227,6.31268 -10.7511,8.6502 -17.21798,6.03839c-6.94752,-2.80597 -10.91571,-9.24445 -8.99756,-16.3747c2.71982,-10.11007 6.12985,-20.03857 9.37301,-30.00299c9.83738,-30.22447 19.73627,-60.42889 29.72776,-91.01977z" fill="#25c2a0"/>
  <path id="svg_5" d="m519.09595,680.98456c-2.34998,7.35223 -4.54572,14.33691 -6.8299,21.2926c-2.15442,6.56049 -3.90906,7.3703 -10.44284,5.07135c-0.60361,-0.21234 -1.44354,-0.57934 -1.87192,-0.33826c-5.24551,2.95227 -8.34271,-0.63415 -11.7326,-3.64349c-5.85419,-5.19714 -11.82819,-10.25909 -17.69037,-15.44739c-4.6333,-4.10058 -4.70676,-6.98883 -0.03866,-11.13263c6.85067,-6.08136 13.88149,-11.95916 20.79913,-17.96563c2.7774,-2.41162 5.69751,-3.18 8.30701,-0.14978c2.64108,3.06689 1.32711,5.7666 -1.48499,8.13659c-4.83783,4.07733 -9.5318,8.32563 -14.38132,12.38849c-2.20553,1.84784 -2.89139,3.45862 -0.41717,5.63806c5.72754,5.04505 11.36911,10.18756 17.52646,15.7229c3.51208,-5.94128 4.65347,-12.38086 6.85775,-18.36633c2.4141,-6.55524 4.28366,-13.30878 6.54065,-19.92468c2.43701,-7.14356 5.4831,-8.04035 11.32062,-3.29218c3.91064,-3.48498 7.33539,-2.05041 10.84698,1.10602c6.31592,5.67712 12.93702,11.01544 19.23383,16.71283c4.74017,4.28906 4.54187,7.3454 -0.3241,11.56439c-6.79229,5.88953 -13.65002,11.70355 -20.43328,17.6034c-2.66059,2.31402 -5.37964,3.75579 -8.19245,0.49926c-2.68939,-3.11364 -1.26764,-5.94616 1.28137,-8.29132c5.61658,-5.16736 11.33838,-10.22027 17.65479,-15.89239c-6.85614,-5.99109 -13.4942,-11.79163 -20.9364,-18.2948c-1.99195,6.04559 -3.7345,11.33423 -5.59259,17.00299z" fill="#25c2a0"/>
  <path id="svg_6" d="m514.06012,534.92542c-1.03784,3.05364 -1.95666,5.73071 -2.84439,8.41802c-0.60733,1.83857 -2.17908,4.32392 -3.45529,3.74128c-5.45594,-2.49073 -11.92359,1.33124 -16.84122,-2.78766c-6.89432,-5.7746 -13.68008,-11.69019 -20.30441,-17.77179c-4.84345,-4.44666 -4.65149,-7.28943 0.21695,-11.50757c6.29452,-5.45377 12.61544,-10.87704 18.92587,-16.31247c0.37872,-0.32614 0.75635,-0.65454 1.14972,-0.96243c2.84756,-2.22846 5.89151,-3.71442 8.78784,-0.36151c2.78296,3.22174 0.74536,5.99908 -1.65085,8.24157c-3.88626,3.637 -7.90313,7.14893 -12.03036,10.51038c-5.61698,4.57477 -5.66599,4.69037 -0.16663,9.44074c4.90125,4.2337 9.7464,8.53247 14.49738,12.69824c2.58496,-0.72638 2.57348,-2.86933 3.11859,-4.47651c3.79645,-11.19335 7.46222,-22.43087 11.20794,-33.64151c1.88312,-5.63616 3.86622,-6.48406 9.19678,-3.82165c1.13953,0.56918 2.02411,0.97504 3.20172,0.25989c3.49207,-2.12045 6.30445,-0.68097 9.01648,1.68756c6.27088,5.47671 12.61115,10.87396 18.89759,16.33292c5.31652,4.61663 5.24816,8.02642 -0.10346,12.66723c-6.29162,5.45587 -12.58026,10.91669 -18.79034,16.46466c-2.90021,2.59101 -6.08319,4.26306 -9.20563,1.06958c-3.31604,-3.39154 -0.98676,-6.48285 1.76221,-8.96631c4.57263,-4.1311 9.27124,-8.12353 13.9483,-12.13775c1.75049,-1.50257 2.74475,-3.1015 0.64081,-4.96497c-5.82312,-5.15765 -11.70874,-10.24475 -18.24292,-15.94736c-4.63996,10.82486 -6.99042,21.55387 -10.93268,32.12742z" fill="#25c2a0"/>
 </g>
</svg>